<svg data-v-423bf9ae="" xmlns="http://www.w3.org/2000/svg" viewBox="0 0 351 90" class="iconLeftSlogan"><!----><!----><!----><g data-v-423bf9ae="" id="525e4037-0bed-4e40-9387-5ae9fb744c15" fill="#000000" transform="matrix(5.25854476664778,0,0,5.25854476664778,145.65571949459016,1.8404916281652284)"><path d="M7.90 0L7.90 0L7.90 0Q8.26 0 8.43 0.17L8.43 0.17L8.43 0.17Q8.55 0.29 8.53 0.46L8.53 0.46L8.53 0.46Q8.51 0.60 8.46 0.68L8.46 0.68L8.46 0.68Q8.41 0.76 8.36 0.80L8.36 0.80L8.36 0.80Q8.29 0.84 8.20 0.89L8.20 0.89L8.20 0.89Q8.11 0.94 7.99 0.95L7.99 0.95L7.99 0.95Q7.63 0.98 7.41 1.00L7.41 1.00L7.41 1.00Q7.18 1.02 7.03 1.03L7.03 1.03L7.03 1.03Q6.87 1.04 6.74 1.04L6.74 1.04L6.74 1.04Q6.61 1.05 6.44 1.06L6.44 1.06L6.44 1.06Q6.27 1.06 6.03 1.08L6.03 1.08L6.03 1.08Q5.80 1.11 5.42 1.13L5.42 1.13L5.42 1.13Q5.35 1.58 5.24 2.31L5.24 2.31L5.24 2.31Q5.14 3.04 5.01 4.12L5.01 4.12L5.01 4.12Q4.62 7.21 4.51 9.30L4.51 9.30L4.51 9.30Q4.49 9.58 4.52 9.96L4.52 9.96L4.52 9.96Q4.55 10.35 4.62 10.84L4.62 10.84L4.62 10.84Q4.63 10.93 4.56 11.00L4.56 11.00L4.56 11.00Q4.51 11.06 4.42 11.06L4.42 11.06L4.40 11.06L4.40 11.06Q4.16 11.02 3.91 10.88L3.91 10.88L3.91 10.88Q3.88 10.86 3.87 10.86L3.87 10.86L3.87 10.86Q3.86 10.85 3.84 10.84L3.84 10.84L3.84 10.84Q3.47 10.42 3.47 9.44L3.47 9.44L3.47 9.44Q3.47 7.92 3.72 5.15L3.72 5.15L3.72 5.15Q3.98 2.42 3.98 1.68L3.98 1.68L3.98 1.68Q3.98 1.57 3.97 1.46L3.97 1.46L3.97 1.46Q3.96 1.36 3.96 1.26L3.96 1.26L3.96 1.26Q3.60 1.26 3.21 1.28L3.21 1.28L3.21 1.28Q2.81 1.30 2.42 1.36L2.42 1.36L2.42 1.36Q2.03 1.41 1.68 1.52L1.68 1.52L1.68 1.52Q1.33 1.62 1.08 1.79L1.08 1.79L1.08 1.79Q0.94 1.89 0.94 1.95L0.94 1.95L0.94 1.95Q0.94 1.97 0.97 2.03L0.97 2.03L0.97 2.03Q0.99 2.09 1.18 2.16L1.18 2.16L1.18 2.16Q1.33 2.23 1.59 2.27L1.59 2.27L1.59 2.27Q1.85 2.31 2.20 2.28L2.20 2.28L2.20 2.28Q2.37 2.27 2.63 2.23L2.63 2.23L2.63 2.23Q2.90 2.18 3.14 2.16L3.14 2.16L3.14 2.16Q3.37 2.13 3.55 2.14L3.55 2.14L3.55 2.14Q3.72 2.16 3.72 2.25L3.72 2.25L3.72 2.25Q3.72 2.31 3.70 2.37L3.70 2.37L3.70 2.37Q3.53 2.65 3.33 2.80L3.33 2.80L3.33 2.80Q3.12 2.95 2.88 3.04L2.88 3.04L2.88 3.04Q2.73 3.09 2.56 3.14L2.56 3.14L2.56 3.14Q2.39 3.18 1.99 3.19L1.99 3.19L1.99 3.19Q1.48 3.21 1.13 3.12L1.13 3.12L1.13 3.12Q0.77 3.02 0.53 2.86L0.53 2.86L0.53 2.86Q0.29 2.66 0.15 2.38L0.15 2.38L0.15 2.38Q0.01 2.10 0.04 1.69L0.04 1.69L0.04 1.69Q0.04 1.60 0.08 1.44L0.08 1.44L0.08 1.44Q0.13 1.27 0.23 1.11L0.23 1.11L0.23 1.11Q0.34 0.94 0.53 0.79L0.53 0.79L0.53 0.79Q0.73 0.64 1.04 0.56L1.04 0.56L1.04 0.56Q1.36 0.48 1.96 0.39L1.96 0.39L1.96 0.39Q2.56 0.31 3.36 0.24L3.36 0.24L3.36 0.24Q3.63 0.22 3.76 0.21L3.76 0.21L3.76 0.21Q3.89 0.20 3.99 0.19L3.99 0.19L3.99 0.19Q4.09 0.18 4.19 0.18L4.19 0.18L4.19 0.18Q4.28 0.18 4.47 0.17L4.47 0.17L4.47 0.17Q4.66 0.17 5.00 0.15L5.00 0.15L5.00 0.15Q5.33 0.14 5.89 0.11L5.89 0.11L5.89 0.11Q6.58 0.08 6.88 0.06L6.88 0.06L6.88 0.06Q7.18 0.04 7.32 0.03L7.32 0.03L7.32 0.03Q7.46 0.01 7.55 0.01L7.55 0.01L7.55 0.01Q7.63 0 7.90 0ZM9.55 5.53L9.55 5.53L9.55 5.53Q9.60 5.53 9.74 5.59L9.74 5.59L9.74 5.59Q9.87 5.66 9.87 5.95L9.87 5.95L9.87 5.95Q9.87 6.44 9.28 8.29L9.28 8.29L9.28 8.29Q9.04 8.99 8.86 9.41L8.86 9.41L8.86 9.41Q8.68 9.83 8.53 10.05L8.53 10.05L8.53 10.05Q8.39 10.28 8.27 10.35L8.27 10.35L8.27 10.35Q8.15 10.42 8.05 10.42L8.05 10.42L8.05 10.42Q7.48 10.42 7.11 9.77L7.11 9.77L7.11 9.77Q7.06 9.70 7.01 9.49L7.01 9.49L7.01 9.49Q6.96 9.28 6.93 8.76L6.93 8.76L6.93 7.69L6.93 6.48L6.93 6.48Q6.93 6.45 6.87 6.35L6.87 6.35L6.87 6.35Q6.82 6.24 6.57 6.08L6.57 6.08L6.57 6.08Q6.48 6.52 6.23 7.39L6.23 7.39L6.23 7.39Q6.23 7.43 6.15 7.60L6.15 7.60L6.15 7.60Q6.12 7.66 6.10 7.69L6.10 7.69L6.10 7.69Q6.09 7.71 6.08 7.73L6.08 7.73L6.08 7.73Q6.08 7.78 6.01 7.83L6.01 7.83L6.01 7.83Q5.94 7.90 5.84 7.85L5.84 7.85L5.63 7.80L5.63 7.80Q5.47 7.74 5.47 7.60L5.47 7.60L5.47 7.60Q5.47 7.59 5.47 7.55L5.47 7.55L5.47 7.55Q5.47 7.52 5.50 7.43L5.50 7.43L5.50 7.43Q5.52 7.34 5.56 7.17L5.56 7.17L5.56 7.17Q5.60 7 5.68 6.71L5.68 6.71L5.68 6.71Q5.87 6.02 5.87 5.60L5.87 5.60L5.87 5.60Q5.87 5.57 5.85 5.47L5.85 5.47L5.85 5.47Q5.84 5.36 5.77 5.17L5.77 5.17L5.77 5.17Q5.63 4.83 5.63 4.56L5.63 4.56L5.63 4.56Q5.63 4.27 5.68 4.09L5.68 4.09L5.68 4.09Q5.74 3.91 5.82 3.80L5.82 3.80L5.82 3.80Q5.91 3.70 6.01 3.65L6.01 3.65L6.01 3.65Q6.12 3.61 6.22 3.61L6.22 3.61L6.22 3.61Q6.27 3.61 6.36 3.63L6.36 3.63L6.36 3.63Q6.44 3.65 6.52 3.72L6.52 3.72L6.52 3.72Q6.59 3.79 6.66 3.93L6.66 3.93L6.66 3.93Q6.72 4.06 6.73 4.27L6.73 4.27L6.73 4.27Q6.75 4.41 6.71 4.76L6.71 4.76L6.71 4.76Q6.68 4.96 6.68 5.05L6.68 5.05L6.68 5.05Q6.68 5.15 6.68 5.21L6.68 5.21L6.68 5.21Q6.69 5.24 6.79 5.31L6.79 5.31L6.79 5.31Q6.89 5.38 7.20 5.53L7.20 5.53L7.20 5.53Q7.95 5.89 7.95 6.47L7.95 6.47L7.95 6.47Q7.95 6.50 7.95 6.57L7.95 6.57L7.95 6.57Q7.94 6.65 7.93 6.80L7.93 6.80L7.93 6.80Q7.92 6.96 7.90 7.22L7.90 7.22L7.90 7.22Q7.87 7.49 7.83 7.91L7.83 7.91L7.83 7.91Q7.80 8.20 7.78 8.40L7.78 8.40L7.78 8.40Q7.76 8.60 7.74 8.72L7.74 8.72L7.74 8.72Q7.73 8.85 7.72 8.93L7.72 8.93L7.72 8.93Q7.71 9.02 7.71 9.10L7.71 9.10L7.71 9.10Q7.71 9.44 7.78 9.52L7.78 9.52L7.78 9.52Q7.85 9.60 7.92 9.60L7.92 9.60L7.92 9.60Q7.94 9.59 7.99 9.53L7.99 9.53L7.99 9.53Q8.04 9.46 8.11 9.30L8.11 9.30L8.11 9.30Q8.19 9.14 8.29 8.87L8.29 8.87L8.29 8.87Q8.40 8.60 8.55 8.16L8.55 8.16L8.55 8.16Q9.03 6.79 9.14 6.05L9.14 6.05L9.14 6.05Q9.18 5.73 9.31 5.63L9.31 5.63L9.31 5.63Q9.44 5.53 9.55 5.53ZM12.59 5.49L12.59 5.49L12.59 5.49Q12.77 5.49 12.75 5.59L12.75 5.59L12.75 5.59Q12.74 5.70 12.74 5.87L12.74 5.87L12.74 5.87Q12.74 5.89 12.73 5.96L12.73 5.96L12.73 5.96Q12.73 6.02 12.70 6.13L12.70 6.13L12.70 6.13Q12.67 6.24 12.63 6.44L12.63 6.44L12.63 6.44Q12.59 6.64 12.50 6.93L12.50 6.93L12.50 6.93Q12.24 8.01 11.93 8.83L11.93 8.83L11.93 8.83Q11.77 9.24 11.63 9.53L11.63 9.53L11.63 9.53Q11.48 9.81 11.34 10.01L11.34 10.01L11.34 10.01Q10.96 10.54 10.39 10.54L10.39 10.54L10.39 10.54Q9.74 10.54 9.28 9.87L9.28 9.87L9.28 9.87Q8.86 9.24 8.86 8.34L8.86 8.34L8.86 8.34Q8.86 7.62 8.97 6.87L8.97 6.87L8.97 6.87Q9.07 6.13 9.24 5.54L9.24 5.54L9.24 5.54Q9.30 5.33 9.37 5.11L9.37 5.11L9.37 5.11Q9.45 4.89 9.56 4.70L9.56 4.70L9.56 4.70Q9.67 4.51 9.81 4.39L9.81 4.39L9.81 4.39Q9.95 4.27 10.15 4.27L10.15 4.27L10.15 4.27Q10.54 4.27 10.88 4.56L10.88 4.56L10.88 4.56Q11.03 4.72 11.13 4.94L11.13 4.94L11.13 4.94Q11.23 5.17 11.23 5.33L11.23 5.33L11.23 5.33Q11.23 5.61 11.17 5.95L11.17 5.95L11.17 5.95Q11.12 6.29 11.03 6.62L11.03 6.62L11.03 6.62Q10.95 6.94 10.84 7.22L10.84 7.22L10.84 7.22Q10.74 7.49 10.63 7.66L10.63 7.66L10.63 7.66Q10.56 7.78 10.43 7.91L10.43 7.91L10.43 7.91Q10.30 8.04 10.17 8.11L10.17 8.11L10.17 8.11Q10.04 8.19 9.92 8.20L9.92 8.20L9.92 8.20Q9.80 8.20 9.72 8.09L9.72 8.09L9.72 8.09Q9.69 8.20 9.70 8.39L9.70 8.39L9.70 8.39Q9.72 8.57 9.74 8.74L9.74 8.74L9.74 8.74Q9.77 8.92 9.81 9.07L9.81 9.07L9.81 9.07Q9.86 9.23 9.88 9.30L9.88 9.30L9.88 9.30Q10.00 9.53 10.18 9.65L10.18 9.65L10.18 9.65Q10.36 9.77 10.43 9.77L10.43 9.77L10.43 9.77Q10.57 9.77 10.70 9.56L10.70 9.56L10.70 9.56Q10.84 9.35 11.05 9.03L11.05 9.03L11.05 9.03Q11.28 8.65 11.58 7.97L11.58 7.97L11.58 7.97Q11.87 7.28 12.11 6.50L12.11 6.50L12.11 6.50Q12.15 6.34 12.19 6.20L12.19 6.20L12.19 6.20Q12.22 6.05 12.26 5.89L12.26 5.89L12.26 5.89Q12.33 5.49 12.59 5.49ZM10.39 5.19L10.39 5.19L10.39 5.19Q10.28 5.50 10.19 5.75L10.19 5.75L10.19 5.75Q10.09 5.99 10.01 6.22L10.01 6.22L10.01 6.22Q9.93 6.45 9.87 6.69L9.87 6.69L9.87 6.69Q9.81 6.93 9.80 7.22L9.80 7.22L9.80 7.22Q9.98 7.21 10.12 6.97L10.12 6.97L10.12 6.97Q10.25 6.73 10.29 6.54L10.29 6.54L10.29 6.54Q10.35 6.26 10.41 5.97L10.41 5.97L10.41 5.97Q10.47 5.68 10.47 5.38L10.47 5.38L10.47 5.38Q10.47 5.31 10.45 5.20L10.45 5.20L10.45 5.20Q10.43 5.10 10.39 5.19ZM16.62 5.57L16.62 5.57L16.62 5.57Q16.73 5.57 16.84 5.66L16.84 5.66L16.84 5.66Q16.94 5.74 16.94 5.95L16.94 5.95L16.94 5.95Q16.94 6.36 16.80 6.79L16.80 6.79L16.80 6.79Q16.65 7.32 16.48 7.85L16.48 7.85L16.48 7.85Q16.32 8.37 16.16 8.90L16.16 8.90L16.16 8.92L16.16 8.92Q15.60 10.46 14.91 10.46L14.91 10.46L14.91 10.46Q14.64 10.46 14.32 10.30L14.32 10.30L14.32 10.30Q14 10.15 13.78 9.63L13.78 9.63L13.78 9.63Q13.78 9.62 13.76 9.59L13.76 9.59L13.76 9.59Q13.75 9.56 13.72 9.46L13.72 9.46L13.72 9.46Q13.69 9.37 13.65 9.18L13.65 9.18L13.65 9.18Q13.61 8.99 13.52 8.67L13.52 8.67L13.52 8.67Q13.37 8.75 13.06 8.96L13.06 8.96L13.06 8.96Q13.05 9.11 13.03 9.31L13.03 9.31L13.03 9.31Q13.02 9.51 12.99 9.73L12.99 9.73L12.99 9.73Q13.09 10.04 13.09 10.25L13.09 10.25L13.09 10.25Q13.09 10.44 12.97 10.56L12.97 10.56L12.97 10.56Q12.85 10.67 12.66 10.67L12.66 10.67L12.66 10.67Q12.42 10.67 12.31 10.42L12.31 10.42L12.31 10.42Q12.19 10.16 12.12 9.86L12.12 9.86L12.12 9.86Q12.10 9.69 12.08 9.48L12.08 9.48L12.08 9.48Q12.07 9.27 12.07 8.99L12.07 8.99L12.07 8.99Q12.07 8.48 12.14 7.50L12.14 7.50L12.14 7.50Q12.22 6.51 12.38 5.04L12.38 5.04L12.38 5.04Q12.68 2.09 12.71 1.01L12.71 1.01L12.71 1.01Q12.64 0.71 12.71 0.43L12.71 0.43L12.71 0.42L12.71 0.42Q12.78 0.11 12.94 0.04L12.94 0.04L12.94 0.04Q13.09-0.04 13.20-0.04L13.20-0.04L13.20-0.04Q13.50-0.04 13.69 0.21L13.69 0.21L13.69 0.21Q13.87 0.41 13.87 0.71L13.87 0.71L13.87 0.71Q13.87 0.91 13.79 1.34L13.79 1.34L13.79 1.34Q13.71 1.78 13.55 2.48L13.55 2.48L13.55 2.48Q13.55 2.51 13.54 2.59L13.54 2.59L13.54 2.59Q13.52 2.67 13.50 2.86L13.50 2.86L13.50 2.86Q13.47 3.04 13.43 3.34L13.43 3.34L13.43 3.34Q13.38 3.64 13.31 4.10L13.31 4.10L13.31 4.10Q13.24 4.68 13.18 5.19L13.18 5.19L13.18 5.19Q13.12 5.71 13.08 6.20L13.08 6.20L13.08 6.20Q13.15 6.03 13.24 5.83L13.24 5.83L13.24 5.83Q13.34 5.63 13.45 5.39L13.45 5.39L13.45 5.39Q13.93 4.41 14.46 4.41L14.46 4.41L14.46 4.41Q14.83 4.41 15.13 4.69L15.13 4.69L15.13 4.69Q15.41 4.97 15.41 5.38L15.41 5.38L15.41 5.38Q15.41 6.03 15.02 6.78L15.02 6.78L15.01 6.79L14.36 7.81L14.36 7.81Q14.35 7.88 14.34 7.99L14.34 7.99L14.34 7.99Q14.34 8.09 14.34 8.20L14.34 8.20L14.34 8.20Q14.34 8.75 14.49 9.18L14.49 9.18L14.49 9.18Q14.63 9.59 14.85 9.59L14.85 9.59L14.85 9.59Q14.87 9.59 14.91 9.58L14.91 9.58L14.91 9.58Q14.95 9.56 15.02 9.49L15.02 9.49L15.02 9.49Q15.09 9.42 15.18 9.28L15.18 9.28L15.18 9.28Q15.27 9.13 15.39 8.86L15.39 8.86L15.39 8.86Q15.51 8.54 15.69 7.95L15.69 7.95L15.69 7.95Q15.88 7.36 16.11 6.52L16.11 6.52L16.11 6.52Q16.14 6.41 16.16 6.30L16.16 6.30L16.16 6.30Q16.17 6.19 16.20 6.08L16.20 6.08L16.21 6.05L16.21 6.05Q16.23 6.01 16.25 5.93L16.25 5.93L16.25 5.93Q16.27 5.85 16.32 5.77L16.32 5.77L16.32 5.77Q16.37 5.68 16.44 5.63L16.44 5.63L16.44 5.63Q16.51 5.57 16.62 5.57ZM13.92 7.08L13.92 7.08L13.92 7.08Q14.55 6.08 14.55 5.29L14.55 5.29L14.55 5.29Q14.55 5.24 14.54 5.21L14.54 5.21L14.54 5.21Q14.53 5.19 14.53 5.18L14.53 5.18L14.52 5.18L14.52 5.18Q14.49 5.18 14.41 5.25L14.41 5.25L14.41 5.25Q14.34 5.32 14.21 5.54L14.21 5.54L14.21 5.54Q14.15 5.66 14.04 5.90L14.04 5.90L14.04 5.90Q13.93 6.15 13.78 6.55L13.78 6.55L13.78 6.55Q13.58 7.06 13.46 7.38L13.46 7.38L13.46 7.38Q13.34 7.71 13.29 7.91L13.29 7.91L13.29 7.91Q13.40 7.81 13.55 7.62L13.55 7.62L13.55 7.62Q13.71 7.43 13.92 7.08ZM23.77 0L23.77 0L23.77 0Q24.14 0 24.30 0.17L24.30 0.17L24.30 0.17Q24.43 0.29 24.40 0.46L24.40 0.46L24.40 0.46Q24.39 0.60 24.34 0.68L24.34 0.68L24.34 0.68Q24.29 0.76 24.23 0.80L24.23 0.80L24.23 0.80Q24.16 0.84 24.07 0.89L24.07 0.89L24.07 0.89Q23.98 0.94 23.87 0.95L23.87 0.95L23.87 0.95Q23.51 0.98 23.28 1.00L23.28 1.00L23.28 1.00Q23.06 1.02 22.90 1.03L22.90 1.03L22.90 1.03Q22.75 1.04 22.62 1.04L22.62 1.04L22.62 1.04Q22.48 1.05 22.32 1.06L22.32 1.06L22.32 1.06Q22.15 1.06 21.91 1.08L21.91 1.08L21.91 1.08Q21.67 1.11 21.29 1.13L21.29 1.13L21.29 1.13Q21.22 1.58 21.12 2.31L21.12 2.31L21.12 2.31Q21.01 3.04 20.89 4.12L20.89 4.12L20.89 4.12Q20.50 7.21 20.38 9.30L20.38 9.30L20.38 9.30Q20.37 9.58 20.40 9.96L20.40 9.96L20.40 9.96Q20.43 10.35 20.50 10.84L20.50 10.84L20.50 10.84Q20.51 10.93 20.44 11.00L20.44 11.00L20.44 11.00Q20.38 11.06 20.30 11.06L20.30 11.06L20.27 11.06L20.27 11.06Q20.03 11.02 19.78 10.88L19.78 10.88L19.78 10.88Q19.75 10.86 19.75 10.86L19.75 10.86L19.75 10.86Q19.74 10.85 19.71 10.84L19.71 10.84L19.71 10.84Q19.35 10.42 19.35 9.44L19.35 9.44L19.35 9.44Q19.35 7.92 19.60 5.15L19.60 5.15L19.60 5.15Q19.85 2.42 19.85 1.68L19.85 1.68L19.85 1.68Q19.85 1.57 19.84 1.46L19.84 1.46L19.84 1.46Q19.84 1.36 19.84 1.26L19.84 1.26L19.84 1.26Q19.47 1.26 19.08 1.28L19.08 1.28L19.08 1.28Q18.69 1.30 18.30 1.36L18.30 1.36L18.30 1.36Q17.91 1.41 17.56 1.52L17.56 1.52L17.56 1.52Q17.21 1.62 16.95 1.79L16.95 1.79L16.95 1.79Q16.81 1.89 16.81 1.95L16.81 1.95L16.81 1.95Q16.81 1.97 16.84 2.03L16.84 2.03L16.84 2.03Q16.87 2.09 17.05 2.16L17.05 2.16L17.05 2.16Q17.21 2.23 17.46 2.27L17.46 2.27L17.46 2.27Q17.72 2.31 18.07 2.28L18.07 2.28L18.07 2.28Q18.24 2.27 18.51 2.23L18.51 2.23L18.51 2.23Q18.77 2.18 19.01 2.16L19.01 2.16L19.01 2.16Q19.25 2.13 19.43 2.14L19.43 2.14L19.43 2.14Q19.60 2.16 19.60 2.25L19.60 2.25L19.60 2.25Q19.60 2.31 19.57 2.37L19.57 2.37L19.57 2.37Q19.40 2.65 19.20 2.80L19.20 2.80L19.20 2.80Q19.00 2.95 18.76 3.04L18.76 3.04L18.76 3.04Q18.61 3.09 18.44 3.14L18.44 3.14L18.44 3.14Q18.27 3.18 17.86 3.19L17.86 3.19L17.86 3.19Q17.36 3.21 17.00 3.12L17.00 3.12L17.00 3.12Q16.65 3.02 16.41 2.86L16.41 2.86L16.41 2.86Q16.17 2.66 16.03 2.38L16.03 2.38L16.03 2.38Q15.89 2.10 15.92 1.69L15.92 1.69L15.92 1.69Q15.92 1.60 15.96 1.44L15.96 1.44L15.96 1.44Q16.00 1.27 16.11 1.11L16.11 1.11L16.11 1.11Q16.21 0.94 16.41 0.79L16.41 0.79L16.41 0.79Q16.60 0.64 16.91 0.56L16.91 0.56L16.91 0.56Q17.23 0.48 17.84 0.39L17.84 0.39L17.84 0.39Q18.44 0.31 19.24 0.24L19.24 0.24L19.24 0.24Q19.50 0.22 19.63 0.21L19.63 0.21L19.63 0.21Q19.77 0.20 19.87 0.19L19.87 0.19L19.87 0.19Q19.96 0.18 20.06 0.18L20.06 0.18L20.06 0.18Q20.16 0.18 20.35 0.17L20.35 0.17L20.35 0.17Q20.54 0.17 20.87 0.15L20.87 0.15L20.87 0.15Q21.21 0.14 21.77 0.11L21.77 0.11L21.77 0.11Q22.46 0.08 22.76 0.06L22.76 0.06L22.76 0.06Q23.06 0.04 23.20 0.03L23.20 0.03L23.20 0.03Q23.34 0.01 23.42 0.01L23.42 0.01L23.42 0.01Q23.51 0 23.77 0ZM25.42 5.53L25.42 5.53L25.42 5.53Q25.48 5.53 25.61 5.59L25.61 5.59L25.61 5.59Q25.75 5.66 25.75 5.95L25.75 5.95L25.75 5.95Q25.75 6.44 25.16 8.29L25.16 8.29L25.16 8.29Q24.92 8.99 24.74 9.41L24.74 9.41L24.74 9.41Q24.56 9.83 24.41 10.05L24.41 10.05L24.41 10.05Q24.26 10.28 24.14 10.35L24.14 10.35L24.14 10.35Q24.02 10.42 23.93 10.42L23.93 10.42L23.93 10.42Q23.35 10.42 22.99 9.77L22.99 9.77L22.99 9.77Q22.93 9.70 22.88 9.49L22.88 9.49L22.88 9.49Q22.83 9.28 22.81 8.76L22.81 8.76L22.81 7.69L22.81 6.48L22.81 6.48Q22.81 6.45 22.75 6.35L22.75 6.35L22.75 6.35Q22.69 6.24 22.44 6.08L22.44 6.08L22.44 6.08Q22.36 6.52 22.11 7.39L22.11 7.39L22.11 7.39Q22.11 7.43 22.02 7.60L22.02 7.60L22.02 7.60Q21.99 7.66 21.98 7.69L21.98 7.69L21.98 7.69Q21.97 7.71 21.95 7.73L21.95 7.73L21.95 7.73Q21.95 7.78 21.88 7.83L21.88 7.83L21.88 7.83Q21.81 7.90 21.71 7.85L21.71 7.85L21.50 7.80L21.50 7.80Q21.35 7.74 21.35 7.60L21.35 7.60L21.35 7.60Q21.35 7.59 21.35 7.55L21.35 7.55L21.35 7.55Q21.35 7.52 21.37 7.43L21.37 7.43L21.37 7.43Q21.39 7.34 21.43 7.17L21.43 7.17L21.43 7.17Q21.48 7 21.56 6.71L21.56 6.71L21.56 6.71Q21.74 6.02 21.74 5.60L21.74 5.60L21.74 5.60Q21.74 5.57 21.73 5.47L21.73 5.47L21.73 5.47Q21.71 5.36 21.64 5.17L21.64 5.17L21.64 5.17Q21.50 4.83 21.50 4.56L21.50 4.56L21.50 4.56Q21.50 4.27 21.56 4.09L21.56 4.09L21.56 4.09Q21.62 3.91 21.70 3.80L21.70 3.80L21.70 3.80Q21.78 3.70 21.89 3.65L21.89 3.65L21.89 3.65Q21.99 3.61 22.09 3.61L22.09 3.61L22.09 3.61Q22.15 3.61 22.23 3.63L22.23 3.63L22.23 3.63Q22.32 3.65 22.39 3.72L22.39 3.72L22.39 3.72Q22.47 3.79 22.53 3.93L22.53 3.93L22.53 3.93Q22.60 4.06 22.61 4.27L22.61 4.27L22.61 4.27Q22.62 4.41 22.58 4.76L22.58 4.76L22.58 4.76Q22.55 4.96 22.55 5.05L22.55 5.05L22.55 5.05Q22.55 5.15 22.55 5.21L22.55 5.21L22.55 5.21Q22.57 5.24 22.67 5.31L22.67 5.31L22.67 5.31Q22.76 5.38 23.07 5.53L23.07 5.53L23.07 5.53Q23.83 5.89 23.83 6.47L23.83 6.47L23.83 6.47Q23.83 6.50 23.82 6.57L23.82 6.57L23.82 6.57Q23.81 6.65 23.81 6.80L23.81 6.80L23.81 6.80Q23.80 6.96 23.77 7.22L23.77 7.22L23.77 7.22Q23.74 7.49 23.70 7.91L23.70 7.91L23.70 7.91Q23.67 8.20 23.65 8.40L23.65 8.40L23.65 8.40Q23.63 8.60 23.62 8.72L23.62 8.72L23.62 8.72Q23.60 8.85 23.60 8.93L23.60 8.93L23.60 8.93Q23.59 9.02 23.59 9.10L23.59 9.10L23.59 9.10Q23.59 9.44 23.66 9.52L23.66 9.52L23.66 9.52Q23.73 9.60 23.80 9.60L23.80 9.60L23.80 9.60Q23.81 9.59 23.86 9.53L23.86 9.53L23.86 9.53Q23.91 9.46 23.99 9.30L23.99 9.30L23.99 9.30Q24.07 9.14 24.17 8.87L24.17 8.87L24.17 8.87Q24.28 8.60 24.43 8.16L24.43 8.16L24.43 8.16Q24.91 6.79 25.02 6.05L25.02 6.05L25.02 6.05Q25.06 5.73 25.19 5.63L25.19 5.63L25.19 5.63Q25.31 5.53 25.42 5.53ZM29.30 5.49L29.30 5.49L29.30 5.49Q29.37 5.50 29.37 5.56L29.37 5.56L29.37 5.56Q29.36 5.63 29.36 5.92L29.36 5.92L29.36 5.92Q29.36 6.20 29.25 6.78L29.25 6.78L29.25 6.78Q29.13 7.35 28.85 8.25L28.85 8.25L28.85 8.25Q28.70 8.74 28.52 9.11L28.52 9.11L28.52 9.11Q28.34 9.49 28.20 9.74L28.20 9.74L28.20 9.74Q28.08 9.94 27.92 10.14L27.92 10.14L27.92 10.14Q27.76 10.33 27.52 10.33L27.52 10.33L27.52 10.33Q27.08 10.33 26.82 9.97L26.82 9.97L26.82 9.97Q26.78 9.90 26.73 9.82L26.73 9.82L26.73 9.82Q26.68 9.74 26.63 9.63L26.63 9.63L26.63 9.63Q26.26 10.64 25.61 10.64L25.61 10.64L25.61 10.64Q25.28 10.64 25.02 10.40L25.02 10.40L25.02 10.40Q24.51 9.88 24.56 8.23L24.56 8.23L24.56 8.23Q24.57 7.97 24.63 7.61L24.63 7.61L24.63 7.61Q24.68 7.25 24.77 6.85L24.77 6.85L24.77 6.85Q24.82 6.62 24.90 6.36L24.90 6.36L24.90 6.36Q24.98 6.09 25.07 5.82L25.07 5.82L25.07 5.82Q25.16 5.56 25.24 5.33L25.24 5.33L25.24 5.33Q25.33 5.11 25.40 4.97L25.40 4.97L25.40 4.97Q25.49 4.79 25.64 4.60L25.64 4.60L25.64 4.60Q25.79 4.41 26.00 4.41L26.00 4.41L26.00 4.41Q26.15 4.41 26.33 4.49L26.33 4.49L26.33 4.49Q26.52 4.56 26.68 4.70L26.68 4.70L26.68 4.70Q26.84 4.83 26.96 5.01L26.96 5.01L26.96 5.01Q27.08 5.19 27.10 5.39L27.10 5.39L27.10 5.39Q27.17 5.84 27.12 6.02L27.12 6.02L27.12 6.02Q27.06 6.20 27.01 6.29L27.01 6.29L27.01 6.29Q26.98 6.31 26.93 6.36L26.93 6.36L26.93 6.36Q26.88 6.40 26.82 6.42L26.82 6.42L26.82 6.42Q26.75 6.44 26.71 6.42L26.71 6.42L26.71 6.42Q26.66 6.40 26.64 6.30L26.64 6.30L26.64 6.30Q26.60 5.96 26.50 5.72L26.50 5.72L26.50 5.72Q26.40 5.47 26.22 5.45L26.22 5.45L26.22 5.45Q26.18 5.52 26.08 5.78L26.08 5.78L26.08 5.78Q25.98 6.05 25.80 6.69L25.80 6.69L25.80 6.69Q25.62 7.34 25.51 7.90L25.51 7.90L25.51 7.90Q25.42 8.57 25.42 9.28L25.42 9.28L25.42 9.28Q25.42 9.51 25.52 9.70L25.52 9.70L25.52 9.70Q25.55 9.76 25.62 9.79L25.62 9.79L25.62 9.79Q25.69 9.83 25.72 9.83L25.72 9.83L25.72 9.83Q25.77 9.83 25.90 9.59L25.90 9.59L25.90 9.59Q26.03 9.35 26.18 8.90L26.18 8.90L26.18 8.90Q26.33 8.50 26.38 8.15L26.38 8.15L26.38 8.15Q26.42 7.80 26.49 7.43L26.49 7.43L26.49 7.43Q26.52 7.32 26.53 7.22L26.53 7.22L26.53 7.22Q26.54 7.13 26.56 7.01L26.56 7.01L26.56 7.01Q26.57 6.90 26.55 6.86L26.55 6.86L26.55 6.86Q26.53 6.82 26.57 6.76L26.57 6.76L26.57 6.76Q26.61 6.71 26.66 6.71L26.66 6.71L26.66 6.71Q26.71 6.71 26.74 6.71L26.74 6.71L26.74 6.71Q26.77 6.71 26.81 6.71L26.81 6.71L26.81 6.71Q26.85 6.72 26.88 6.72L26.88 6.72L26.88 6.72Q26.94 6.72 26.98 6.75L26.98 6.75L26.98 6.75Q27.02 6.79 27.08 6.80L27.08 6.80L27.08 6.80Q27.13 6.82 27.17 6.84L27.17 6.84L27.17 6.84Q27.20 6.86 27.24 6.89L27.24 6.89L27.24 6.89Q27.30 6.90 27.36 6.93L27.36 6.93L27.36 6.93Q27.40 6.96 27.43 7L27.43 7L27.43 7Q27.47 7.04 27.44 7.10L27.44 7.10L27.44 7.10Q27.40 7.22 27.36 7.36L27.36 7.36L27.36 7.36Q27.33 7.50 27.30 7.64L27.30 7.64L27.30 7.64Q27.27 7.84 27.25 8.06L27.25 8.06L27.25 8.06Q27.23 8.29 27.20 8.50L27.20 8.50L27.20 8.50Q27.17 8.88 27.29 9.25L27.29 9.25L27.29 9.25Q27.34 9.41 27.38 9.46L27.38 9.46L27.38 9.46Q27.41 9.51 27.43 9.52L27.43 9.52L27.43 9.52Q27.44 9.52 27.47 9.48L27.47 9.48L27.47 9.48Q27.50 9.45 27.55 9.36L27.55 9.36L27.55 9.36Q27.61 9.27 27.70 9.09L27.70 9.09L27.70 9.09Q27.79 8.92 27.93 8.64L27.93 8.64L27.93 8.64Q28.21 8.06 28.34 7.59L28.34 7.59L28.34 7.59Q28.48 7.13 28.56 6.87L28.56 6.87L28.91 5.89L28.91 5.89Q28.94 5.78 29.02 5.62L29.02 5.62L29.02 5.62Q29.09 5.46 29.30 5.49ZM31.14 4.56L31.14 4.56L31.14 4.56Q31.36 4.56 31.49 4.73L31.49 4.73L31.49 4.73Q31.61 4.90 31.67 5.14L31.67 5.14L31.67 5.14Q31.72 5.38 31.73 5.62L31.73 5.62L31.73 5.62Q31.74 5.87 31.74 6.01L31.74 6.01L31.74 6.01Q31.74 7.20 31.26 8.68L31.26 8.68L31.26 8.68Q31.00 9.56 30.72 9.97L30.72 9.97L30.72 9.97Q30.44 10.39 30.10 10.39L30.10 10.39L30.10 10.39Q29.54 10.39 29.25 9.53L29.25 9.53L29.25 9.53Q29.01 8.78 29.01 7.56L29.01 7.56L29.01 6.08L29.01 6.08Q28.95 5.85 29.04 5.71L29.04 5.71L29.04 5.70L29.05 5.68L29.05 5.68Q29.08 5.64 29.16 5.59L29.16 5.59L29.16 5.59Q29.23 5.54 29.37 5.54L29.37 5.54L29.37 5.54Q30.04 5.57 30.04 6.23L30.04 6.23L30.04 6.23Q30.04 6.38 30.03 6.58L30.03 6.58L30.03 6.58Q30.02 6.78 29.97 7.01L29.97 7.01L29.97 7.01Q29.95 7.25 29.93 7.43L29.93 7.43L29.93 7.43Q29.92 7.62 29.92 7.77L29.92 7.77L29.92 7.77Q29.92 8.25 29.95 8.55L29.95 8.55L29.95 8.55Q29.97 8.85 30.01 9.03L30.01 9.03L30.01 9.03Q30.04 9.21 30.08 9.30L30.08 9.30L30.08 9.30Q30.11 9.38 30.14 9.41L30.14 9.41L30.14 9.41Q30.18 9.34 30.29 9.09L30.29 9.09L30.29 9.09Q30.39 8.83 30.59 8.19L30.59 8.19L30.59 8.19Q30.76 7.56 30.86 7.11L30.86 7.11L30.86 7.11Q30.95 6.65 30.94 6.38L30.94 6.38L30.94 6.38Q30.97 5.67 30.92 5.36L30.92 5.36L30.92 5.36Q30.87 5.05 30.86 5.01L30.86 5.01L30.86 5.01Q30.83 4.93 30.83 4.84L30.83 4.84L30.83 4.84Q30.83 4.56 31.14 4.56ZM35.66 5.49L35.66 5.49L35.66 5.49Q35.84 5.49 35.83 5.59L35.83 5.59L35.83 5.59Q35.81 5.70 35.81 5.87L35.81 5.87L35.81 5.87Q35.81 5.89 35.80 5.96L35.80 5.96L35.80 5.96Q35.80 6.02 35.77 6.13L35.77 6.13L35.77 6.13Q35.74 6.24 35.70 6.44L35.70 6.44L35.70 6.44Q35.66 6.64 35.57 6.93L35.57 6.93L35.57 6.93Q35.31 8.01 35 8.83L35 8.83L35 8.83Q34.85 9.24 34.70 9.53L34.70 9.53L34.70 9.53Q34.55 9.81 34.41 10.01L34.41 10.01L34.41 10.01Q34.03 10.54 33.46 10.54L33.46 10.54L33.46 10.54Q32.82 10.54 32.35 9.87L32.35 9.87L32.35 9.87Q31.93 9.24 31.93 8.34L31.93 8.34L31.93 8.34Q31.93 7.62 32.04 6.87L32.04 6.87L32.04 6.87Q32.14 6.13 32.31 5.54L32.31 5.54L32.31 5.54Q32.37 5.33 32.45 5.11L32.45 5.11L32.45 5.11Q32.52 4.89 32.63 4.70L32.63 4.70L32.63 4.70Q32.75 4.51 32.89 4.39L32.89 4.39L32.89 4.39Q33.03 4.27 33.22 4.27L33.22 4.27L33.22 4.27Q33.61 4.27 33.95 4.56L33.95 4.56L33.95 4.56Q34.10 4.72 34.20 4.94L34.20 4.94L34.20 4.94Q34.30 5.17 34.30 5.33L34.30 5.33L34.30 5.33Q34.30 5.61 34.24 5.95L34.24 5.95L34.24 5.95Q34.19 6.29 34.10 6.62L34.10 6.62L34.10 6.62Q34.02 6.94 33.91 7.22L33.91 7.22L33.91 7.22Q33.81 7.49 33.70 7.66L33.70 7.66L33.70 7.66Q33.63 7.78 33.50 7.91L33.50 7.91L33.50 7.91Q33.38 8.04 33.24 8.11L33.24 8.11L33.24 8.11Q33.11 8.19 32.99 8.20L32.99 8.20L32.99 8.20Q32.87 8.20 32.79 8.09L32.79 8.09L32.79 8.09Q32.76 8.20 32.77 8.39L32.77 8.39L32.77 8.39Q32.79 8.57 32.82 8.74L32.82 8.74L32.82 8.74Q32.84 8.92 32.89 9.07L32.89 9.07L32.89 9.07Q32.93 9.23 32.96 9.30L32.96 9.30L32.96 9.30Q33.07 9.53 33.25 9.65L33.25 9.65L33.25 9.65Q33.43 9.77 33.50 9.77L33.50 9.77L33.50 9.77Q33.64 9.77 33.77 9.56L33.77 9.56L33.77 9.56Q33.91 9.35 34.12 9.03L34.12 9.03L34.12 9.03Q34.36 8.65 34.65 7.97L34.65 7.97L34.65 7.97Q34.94 7.28 35.18 6.50L35.18 6.50L35.18 6.50Q35.22 6.34 35.26 6.20L35.26 6.20L35.26 6.20Q35.29 6.05 35.34 5.89L35.34 5.89L35.34 5.89Q35.41 5.49 35.66 5.49ZM33.46 5.19L33.46 5.19L33.46 5.19Q33.35 5.50 33.26 5.75L33.26 5.75L33.26 5.75Q33.17 5.99 33.08 6.22L33.08 6.22L33.08 6.22Q33.00 6.45 32.94 6.69L32.94 6.69L32.94 6.69Q32.89 6.93 32.87 7.22L32.87 7.22L32.87 7.22Q33.05 7.21 33.19 6.97L33.19 6.97L33.19 6.97Q33.32 6.73 33.36 6.54L33.36 6.54L33.36 6.54Q33.42 6.26 33.48 5.97L33.48 5.97L33.48 5.97Q33.54 5.68 33.54 5.38L33.54 5.38L33.54 5.38Q33.54 5.31 33.52 5.20L33.52 5.20L33.52 5.20Q33.50 5.10 33.46 5.19ZM38.67 5.45L38.67 5.45L38.67 5.45Q38.68 5.45 38.74 5.45L38.74 5.45L38.74 5.45Q38.79 5.46 38.86 5.50L38.86 5.50L38.86 5.50Q38.92 5.54 38.96 5.63L38.96 5.63L38.96 5.63Q39.00 5.71 39.00 5.87L39.00 5.87L39.00 5.87Q39.00 6.19 38.85 6.78L38.85 6.78L38.85 6.78Q38.70 7.36 38.39 8.26L38.39 8.26L38.39 8.26Q38.01 9.41 37.63 9.95L37.63 9.95L37.63 9.95Q37.24 10.49 36.82 10.49L36.82 10.49L36.82 10.49Q36.16 10.49 35.66 9.74L35.66 9.74L35.66 9.74Q35.10 8.89 35.10 7.39L35.10 7.39L35.10 7.39Q35.10 6.72 35.17 5.84L35.17 5.84L35.17 5.84Q35.25 4.97 35.41 3.88L35.41 3.88L35.41 3.88Q35.73 1.78 36.04 0.84L36.04 0.84L36.04 0.84Q36.08 0.29 36.22 0.03L36.22 0.03L36.22 0.03Q36.33-0.21 36.48-0.28L36.48-0.28L36.48-0.28Q36.64-0.35 36.75-0.35L36.75-0.35L36.75-0.35Q36.95-0.35 37.16-0.28L37.16-0.28L37.16-0.28Q37.37-0.21 37.54-0.02L37.54-0.02L37.54-0.02Q37.72 0.17 37.83 0.50L37.83 0.50L37.83 0.50Q37.94 0.83 37.94 1.36L37.94 1.36L37.94 1.36Q37.94 2.67 37.44 4.35L37.44 4.35L37.44 4.35Q36.93 6.06 36.26 7.08L36.26 7.08L36.26 7.08Q36.23 7.13 36.20 7.17L36.20 7.17L36.20 7.17Q36.18 7.22 36.11 7.29L36.11 7.29L36.11 7.29Q36.01 7.42 35.98 7.49L35.98 7.49L35.98 7.49Q35.95 7.55 35.95 7.62L35.95 7.62L35.95 7.62Q35.95 8.62 36.40 9.20L36.40 9.20L36.40 9.20Q36.58 9.44 36.69 9.50L36.69 9.50L36.69 9.50Q36.79 9.56 36.85 9.56L36.85 9.56L36.85 9.56Q36.90 9.55 36.96 9.48L36.96 9.48L36.96 9.48Q37.02 9.41 37.10 9.29L37.10 9.29L37.10 9.29Q37.18 9.17 37.30 8.93L37.30 8.93L37.30 8.93Q37.65 8.19 38.07 6.76L38.07 6.76L38.07 6.76Q38.12 6.54 38.17 6.33L38.17 6.33L38.17 6.33Q38.22 6.12 38.28 5.91L38.28 5.91L38.28 5.91Q38.30 5.80 38.39 5.62L38.39 5.62L38.39 5.62Q38.47 5.45 38.67 5.45ZM37.03 1.06L37.03 1.06L37.03 1.06Q36.61 2.49 36.35 3.65L36.35 3.65L36.35 3.65Q36.09 4.80 36.01 5.71L36.01 5.71L36.01 5.71Q36.16 5.36 36.32 4.95L36.32 4.95L36.32 4.95Q36.47 4.54 36.62 4.05L36.62 4.05L36.62 4.05Q37.07 2.51 37.07 1.78L37.07 1.78L37.07 1.78Q37.07 1.32 37.03 1.06Z"></path></g><defs data-v-423bf9ae=""><linearGradient data-v-423bf9ae="" gradientTransform="rotate(25)" id="6ea6173b-de1d-4551-8574-8e829a96dde7" x1="0%" y1="0%" x2="100%" y2="0%"><stop data-v-423bf9ae="" offset="0%" style="stop-color: rgb(60, 17, 67); stop-opacity: 1;"></stop><stop data-v-423bf9ae="" offset="100%" style="stop-color: rgb(194, 81, 120); stop-opacity: 1;"></stop></linearGradient></defs><g data-v-423bf9ae="" id="db5b8952-620c-417f-9b34-acadb05e891d" transform="matrix(1.5254237288135593,0,0,1.5254237288135593,-15.460848743632681,-33.82203389830508)" stroke="none" fill="url(#6ea6173b-de1d-4551-8574-8e829a96dde7)"><switch><g><path d="M50 81.5c-16.3 0-29.5-13.2-29.5-29.5S33.7 22.5 50 22.5c6.8 0 13.5 2.4 18.8 6.7 3.3 2.7 6 6.2 7.8 10 .4.7 0 1.6-.7 2-.7.4-1.6 0-2-.7-1.7-3.4-4.1-6.5-7-9-4.7-3.9-10.7-6.1-16.9-6.1-14.6 0-26.5 11.9-26.5 26.5S35.4 78.5 50 78.5c10.3 0 19.7-6 24.1-15.4.3-.8 1.2-1.1 2-.7.8.3 1.1 1.2.7 2C72 74.8 61.5 81.5 50 81.5z"></path><path d="M27.7 71.1c-8.8 0-15-2.4-16.7-6.9-1.8-4.9 1.8-11.2 10.2-17.5.7-.5 1.6-.4 2.1.3s.4 1.6-.3 2.1c-7 5.3-10.4 10.6-9.2 14.1 2 5.4 15.8 7.3 35.6 1.2.8-.2 1.6.2 1.9 1 .2.8-.2 1.6-1 1.9-8.4 2.6-16.2 3.8-22.6 3.8zM87.6 37.8c-.6 0-1.2-.4-1.4-1-1.3-3.5-7.3-5.3-16.1-4.9h-2.3c-.8 0-1.5-.7-1.5-1.5s.7-1.5 1.5-1.5H70c10.4-.5 17.2 1.9 19 6.9.3.8-.1 1.6-.9 1.9-.2.1-.3.1-.5.1z"></path><path d="M50 67.1c-.2 0-.4 0-.6-.1l-7.3-3.4c-.8-.3-1.1-1.2-.7-2 .4-.8 1.2-1.1 2-.7l7.3 3.4c.8.3 1.1 1.2.7 2-.3.5-.8.8-1.4.8z"></path><path d="M46.6 74.4c-.2 0-.4 0-.6-.1-.8-.3-1.1-1.2-.7-2l3.4-7.3c.4-.8 1.2-1.1 2-.7.8.3 1.1 1.2.7 2L48 73.5c-.3.6-.8.9-1.4.9z"></path><g><path d="M58.6 64c-.2 0-.4 0-.6-.1l-12-5.5c-.6-.3-1-1-.8-1.7s.7-1.2 1.4-1.2l11.9-.4 4.3-2.6-6.7-7.2c-.3-.3-.4-.7-.4-1.1 0-.4.2-.8.5-1.1.2-.1 1.7-1.4 4.7-1.4 3.7 0 8 1.9 12.8 5.5l10.2-4.7c.6-.3 1.5-.4 2.5-.4 1.9 0 5.4.5 6.3 2.6.4.9.8 2.5-1 4-.9.7-2.3 1.4-4 2.2l-28.5 13c-.2.1-.4.1-.6.1zM53 58.3l5.6 2.5 27.7-12.6c1.5-.7 3.4-1.5 3.6-2 0 0 0-.1-.1-.2-.2-.3-1.7-.8-3.6-.8-.7 0-1.1.1-1.3.2l-11 5c-.5.2-1.1.2-1.6-.2-5.6-4.5-9.4-5.4-11.6-5.4-.4 0-.8 0-1.2.1l6.5 6.9c.3.3.5.8.4 1.2-.1.4-.3.8-.7 1.1l-6.2 3.8c-.2.1-.5.2-.7.2l-5.8.2z"></path></g></g></switch></g><!----><g data-v-423bf9ae="" id="0d80955e-81c0-4cad-8c85-8150a7f57461" fill="#000000" transform="matrix(0.4126175793035225,0,0,0.4126175793035225,145.84234292231096,59.13350344993946)"><path d="M4.93 7.81L8.81 2.21L7.53 2.21L4.40 6.72L1.26 2.21L-0.01 2.21L3.88 7.81L3.88 11.48L4.93 11.48ZM20.55 2.10C17.74 2.10 15.85 4.21 15.85 6.85C15.85 9.48 17.74 11.59 20.55 11.59C23.37 11.59 25.26 9.48 25.26 6.85C25.26 4.21 23.37 2.10 20.55 2.10ZM20.55 10.57C18.30 10.57 16.90 8.93 16.90 6.85C16.90 4.76 18.30 3.12 20.55 3.12C22.81 3.12 24.21 4.76 24.21 6.85C24.21 8.93 22.81 10.57 20.55 10.57ZM40.66 2.21L40.66 7.52C40.66 9.67 39.23 10.57 37.76 10.57C36.29 10.57 34.87 9.67 34.87 7.52L34.87 2.21L33.82 2.21L33.82 7.49C33.82 9.95 35.45 11.59 37.76 11.59C40.08 11.59 41.71 9.94 41.71 7.49L41.71 2.21ZM51.91 7.92L55.13 7.92L57.37 11.48L58.62 11.48L56.18 7.74C57.22 7.50 58.42 6.90 58.42 5.11C58.42 3.35 57.20 2.21 55.30 2.21L50.86 2.21L50.86 11.48L51.91 11.48ZM51.91 3.21L55.17 3.21C56.49 3.21 57.37 3.93 57.37 5.11C57.37 6.55 56.11 6.93 55.12 6.93L51.91 6.93ZM81.35 2.21L81.35 8.37C81.35 9.32 81.12 10.57 79.44 10.57C78.12 10.57 77.49 9.73 77.38 9.00L76.29 9.00C76.41 10.26 77.38 11.59 79.38 11.59C81.62 11.59 82.40 10.04 82.40 8.41L82.40 2.21ZM95.70 2.10C92.89 2.10 91 4.21 91 6.85C91 9.48 92.89 11.59 95.70 11.59C98.52 11.59 100.41 9.48 100.41 6.85C100.41 4.21 98.52 2.10 95.70 2.10ZM95.70 10.57C93.45 10.57 92.05 8.93 92.05 6.85C92.05 4.76 93.45 3.12 95.70 3.12C97.96 3.12 99.36 4.76 99.36 6.85C99.36 8.93 97.96 10.57 95.70 10.57ZM115.81 2.21L115.81 7.52C115.81 9.67 114.38 10.57 112.91 10.57C111.44 10.57 110.03 9.67 110.03 7.52L110.03 2.21L108.98 2.21L108.98 7.49C108.98 9.95 110.60 11.59 112.91 11.59C115.23 11.59 116.86 9.94 116.86 7.49L116.86 2.21ZM127.06 7.92L130.28 7.92L132.52 11.48L133.77 11.48L131.33 7.74C132.37 7.50 133.57 6.90 133.57 5.11C133.57 3.35 132.36 2.21 130.45 2.21L126.01 2.21L126.01 11.48L127.06 11.48ZM127.06 3.21L130.33 3.21C131.64 3.21 132.52 3.93 132.52 5.11C132.52 6.55 131.26 6.93 130.27 6.93L127.06 6.93ZM149.32 2.21L149.32 10.01L143.60 2.21L142.38 2.21L142.38 11.48L143.43 11.48L143.43 3.65L149.16 11.48L150.37 11.48L150.37 2.21ZM166.46 3.22L166.46 2.21L159.64 2.21L159.64 11.48L166.46 11.48L166.46 10.47L160.69 10.47L160.69 7.35L165.84 7.35L165.84 6.33L160.69 6.33L160.69 3.22ZM178.95 7.81L182.83 2.21L181.55 2.21L178.42 6.72L175.28 2.21L174.01 2.21L177.90 7.81L177.90 11.48L178.95 11.48ZM189.03 13.34L189.98 13.34L191.21 10.36L189.84 10.36ZM214.19 2.10C211.37 2.10 209.48 4.21 209.48 6.85C209.48 9.48 211.37 11.59 214.19 11.59C217 11.59 218.89 9.48 218.89 6.85C218.89 4.21 217 2.10 214.19 2.10ZM214.19 10.57C211.93 10.57 210.53 8.93 210.53 6.85C210.53 4.76 211.93 3.12 214.19 3.12C216.44 3.12 217.84 4.76 217.84 6.85C217.84 8.93 216.44 10.57 214.19 10.57ZM234.29 2.21L234.29 7.52C234.29 9.67 232.86 10.57 231.39 10.57C229.92 10.57 228.51 9.67 228.51 7.52L228.51 2.21L227.46 2.21L227.46 7.49C227.46 9.95 229.08 11.59 231.39 11.59C233.72 11.59 235.34 9.94 235.34 7.49L235.34 2.21ZM245.55 7.92L248.77 7.92L251.01 11.48L252.25 11.48L249.82 7.74C250.85 7.50 252.06 6.90 252.06 5.11C252.06 3.35 250.84 2.21 248.93 2.21L244.50 2.21L244.50 11.48L245.55 11.48ZM245.55 3.21L248.81 3.21C250.12 3.21 251.01 3.93 251.01 5.11C251.01 6.55 249.75 6.93 248.75 6.93L245.55 6.93ZM277.66 3.22L277.66 2.21L270.84 2.21L270.84 11.48L277.66 11.48L277.66 10.47L271.89 10.47L271.89 7.35L277.05 7.35L277.05 6.33L271.89 6.33L271.89 3.22ZM293.59 2.21L292.26 2.21L289.51 5.85L286.76 2.21L285.43 2.21L288.88 6.69L285.18 11.48L286.51 11.48L289.51 7.50L292.52 11.48L293.85 11.48L290.15 6.69ZM302.99 8.18L306.11 8.18C308.08 8.18 309.30 7.03 309.30 5.19C309.30 3.37 308.08 2.21 306.11 2.21L301.94 2.21L301.94 11.48L302.99 11.48ZM306.04 3.21C307.50 3.21 308.25 3.96 308.25 5.19C308.25 6.44 307.50 7.20 306.04 7.20L302.99 7.20L302.99 3.21ZM324.55 3.22L324.55 2.21L317.73 2.21L317.73 11.48L324.55 11.48L324.55 10.47L318.78 10.47L318.78 7.35L323.93 7.35L323.93 6.33L318.78 6.33L318.78 3.22ZM334.29 7.92L337.51 7.92L339.75 11.48L341.00 11.48L338.56 7.74C339.60 7.50 340.80 6.90 340.80 5.11C340.80 3.35 339.58 2.21 337.68 2.21L333.24 2.21L333.24 11.48L334.29 11.48ZM334.29 3.21L337.55 3.21C338.87 3.21 339.75 3.93 339.75 5.11C339.75 6.55 338.49 6.93 337.50 6.93L334.29 6.93ZM356.19 2.21L348.67 2.21L348.67 3.22L351.90 3.22L351.90 11.48L352.95 11.48L352.95 3.22L356.19 3.22ZM365.57 2.21L364.52 2.21L364.52 11.48L365.57 11.48ZM375.45 4.65C375.45 4.03 375.82 3.08 377.92 3.08C379.61 3.08 380.39 3.82 380.51 4.75L381.58 4.75C381.50 3.36 380.38 2.10 377.92 2.10C375.59 2.10 374.43 3.15 374.43 4.66C374.43 7.84 380.77 6.69 380.77 8.96C380.77 10.05 379.79 10.60 378.22 10.60C376.61 10.60 375.31 10.05 375.24 8.71L374.15 8.71C374.29 10.37 375.41 11.59 378.15 11.59C380.44 11.59 381.82 10.64 381.82 8.92C381.82 5.68 375.45 6.80 375.45 4.65ZM397.26 3.22L397.26 2.21L390.45 2.21L390.45 11.48L397.26 11.48L397.26 10.47L391.50 10.47L391.50 7.35L396.65 7.35L396.65 6.33L391.50 6.33L391.50 3.22Z"></path></g></svg>